<svg width="96" height="64" viewBox="0 0 96 64" fill="none" xmlns="http://www.w3.org/2000/svg">
<rect opacity="0.05" x="-3.05176e-05" width="96" height="64" rx="8" fill="#E0E0E0"/>
<g clip-path="url(#clip0_1_485)">
<path d="M41.4935 20.2275H54.4591V43.9539H41.4935V20.2275Z" fill="#BDBDBD"/>
<path d="M42.3167 32.091C42.3167 27.2703 44.5393 22.9945 47.9555 20.2277C45.4449 18.2156 42.2756 17 38.8181 17C30.6268 17 24 23.7489 24 32.091C24 40.4328 30.6268 47.1819 38.8179 47.1819C42.2754 47.1819 45.4447 45.9663 47.9555 43.954C44.5393 41.2293 42.3167 36.9116 42.3167 32.091Z" fill="#828282"/>
<path d="M71.9524 32.091C71.9524 40.4328 65.3255 47.1819 57.1344 47.1819C53.6769 47.1819 50.5076 45.9663 47.9968 43.954C51.4543 41.1875 53.6359 36.9116 53.6359 32.091C53.6359 27.2703 51.413 22.9945 47.9968 20.2277C50.5074 18.2156 53.6769 17 57.1344 17C65.3255 17 71.9525 23.7909 71.9525 32.091H71.9524Z" fill="#E0E0E0"/>
</g>
<defs>
<clipPath id="clip0_1_485">
<rect width="48" height="38" fill="white" transform="translate(24 13)"/>
</clipPath>
</defs>
</svg>
